<?xml version="1.0" encoding="UTF-8"?>
<svg xmlns="http://www.w3.org/2000/svg" viewBox="0 0 820 140" width="820" height="140">
  <rect width="100%" height="100%" fill="#0b1220"/>
  <!-- Username added at top-left -->
  <text x="14" y="22" fill="#e6eef8" font-family="Segoe UI, Roboto, Arial, sans-serif" font-size="14" font-weight="700">airbends</text>

  <!-- Month labels -->
  <g fill="#9fb0c6" font-family="Segoe UI, Roboto, Arial, sans-serif" font-size="12" font-weight="600">
    <text x="68" y="18">Aug</text>
    <text x="132" y="18">Sep</text>
    <text x="196" y="18">Oct</text>
    <text x="260" y="18">Nov</text>
    <text x="324" y="18">Dec</text>
    <text x="388" y="18">Jan</text>
    <text x="452" y="18">Feb</text>
    <text x="516" y="18">Mar</text>
    <text x="580" y="18">Apr</text>
    <text x="644" y="18">May</text>
    <text x="708" y="18">Jun</text>
    <text x="772" y="18">Jul</text>
  </g>

  <!-- Day labels -->
  <g fill="#9fb0c6" font-family="Segoe UI, Roboto, Arial, sans-serif" font-size="12">
    <text x="14" y="44">Mon</text>
    <text x="14" y="64">Wed</text>
    <text x="14" y="84">Fri</text>
  </g>

  <!-- Contribution grid (3 rows x 52 cols) -->
  <!-- Color palette: increasing intensity left->right for visual variety -->
  <!-- Shades: 0:#103d1f 1:#165b2c 2:#21793a 3:#2bb049 4:#39e06a -->
  <g>
    <!-- Row Y = 30 -->
    <rect x="10" y="30" width="12" height="12" rx="2" fill="#103d1f"/>
    <rect x="24" y="30" width="12" height="12" rx="2" fill="#165b2c"/>
    <rect x="38" y="30" width="12" height="12" rx="2" fill="#21793a"/>
    <rect x="52" y="30" width="12" height="12" rx="2" fill="#2bb049"/>
    <rect x="66" y="30" width="12" height="12" rx="2" fill="#39e06a"/>
    <rect x="80" y="30" width="12" height="12" rx="2" fill="#103d1f"/>
    <rect x="94" y="30" width="12" height="12" rx="2" fill="#165b2c"/>
    <rect x="108" y="30" width="12" height="12" rx="2" fill="#21793a"/>
    <rect x="122" y="30" width="12" height="12" rx="2" fill="#2bb049"/>
    <rect x="136" y="30" width="12" height="12" rx="2" fill="#39e06a"/>
    <rect x="150" y="30" width="12" height="12" rx="2" fill="#103d1f"/>
    <rect x="164" y="30" width="12" height="12" rx="2" fill="#165b2c"/>
    <rect x="178" y="30" width="12" height="12" rx="2" fill="#21793a"/>
    <rect x="192" y="30" width="12" height="12" rx="2" fill="#2bb049"/>
    <rect x="206" y="30" width="12" height="12" rx="2" fill="#39e06a"/>
    <rect x="220" y="30" width="12" height="12" rx="2" fill="#103d1f"/>
    <rect x="234" y="30" width="12" height="12" rx="2" fill="#165b2c"/>
    <rect x="248" y="30" width="12" height="12" rx="2" fill="#21793a"/>
    <rect x="262" y="30" width="12" height="12" rx="2" fill="#2bb049"/>
    <rect x="276" y="30" width="12" height="12" rx="2" fill="#39e06a"/>
    <rect x="290" y="30" width="12" height="12" rx="2" fill="#103d1f"/>
    <rect x="304" y="30" width="12" height="12" rx="2" fill="#165b2c"/>
    <rect x="318" y="30" width="12" height="12" rx="2" fill="#21793a"/>
    <rect x="332" y="30" width="12" height="12" rx="2" fill="#2bb049"/>
    <rect x="346" y="30" width="12" height="12" rx="2" fill="#39e06a"/>
    <rect x="360" y="30" width="12" height="12" rx="2" fill="#103d1f"/>
    <rect x="374" y="30" width="12" height="12" rx="2" fill="#165b2c"/>
    <rect x="388" y="30" width="12" height="12" rx="2" fill="#21793a"/>
    <rect x="402" y="30" width="12" height="12" rx="2" fill="#2bb049"/>
    <rect x="416" y="30" width="12" height="12" rx="2" fill="#39e06a"/>
    <rect x="430" y="30" width="12" height="12" rx="2" fill="#103d1f"/>
    <rect x="444" y="30" width="12" height="12" rx="2" fill="#165b2c"/>
    <rect x="458" y="30" width="12" height="12" rx="2" fill="#21793a"/>
    <rect x="472" y="30" width="12" height="12" rx="2" fill="#2bb049"/>
    <rect x="486" y="30" width="12" height="12" rx="2" fill="#39e06a"/>
    <rect x="500" y="30" width="12" height="12" rx="2" fill="#103d1f"/>
    <rect x="514" y="30" width="12" height="12" rx="2" fill="#165b2c"/>
    <rect x="528" y="30" width="12" height="12" rx="2" fill="#21793a"/>
    <rect x="542" y="30" width="12" height="12" rx="2" fill="#2bb049"/>
    <rect x="556" y="30" width="12" height="12" rx="2" fill="#39e06a"/>
    <rect x="570" y="30" width="12" height="12" rx="2" fill="#103d1f"/>
    <rect x="584" y="30" width="12" height="12" rx="2" fill="#165b2c"/>
    <rect x="598" y="30" width="12" height="12" rx="2" fill="#21793a"/>
    <rect x="612" y="30" width="12" height="12" rx="2" fill="#2bb049"/>
    <rect x="626" y="30" width="12" height="12" rx="2" fill="#39e06a"/>
    <rect x="640" y="30" width="12" height="12" rx="2" fill="#103d1f"/>
    <rect x="654" y="30" width="12" height="12" rx="2" fill="#165b2c"/>
    <rect x="668" y="30" width="12" height="12" rx="2" fill="#21793a"/>
    <rect x="682" y="30" width="12" height="12" rx="2" fill="#2bb049"/>
    <rect x="696" y="30" width="12" height="12" rx="2" fill="#39e06a"/>
    <rect x="710" y="30" width="12" height="12" rx="2" fill="#103d1f"/>
    <rect x="724" y="30" width="12" height="12" rx="2" fill="#165b2c"/>
    <rect x="738" y="30" width="12" height="12" rx="2" fill="#21793a"/>
    <rect x="752" y="30" width="12" height="12" rx="2" fill="#2bb049"/>
    <rect x="766" y="30" width="12" height="12" rx="2" fill="#39e06a"/>

    <!-- Row Y = 50 -->
    <rect x="10" y="50" width="12" height="12" rx="2" fill="#165b2c"/>
    <rect x="24" y="50" width="12" height="12" rx="2" fill="#21793a"/>
    <rect x="38" y="50" width="12" height="12" rx="2" fill="#2bb049"/>
    <rect x="52" y="50" width="12" height="12" rx="2" fill="#39e06a"/>
    <rect x="66" y="50" width="12" height="12" rx="2" fill="#103d1f"/>
    <rect x="80" y="50" width="12" height="12" rx="2" fill="#165b2c"/>
    <rect x="94" y="50" width="12" height="12" rx="2" fill="#21793a"/>
    <rect x="108" y="50" width="12" height="12" rx="2" fill="#2bb049"/>
    <rect x="122" y="50" width="12" height="12" rx="2" fill="#39e06a"/>
    <rect x="136" y="50" width="12" height="12" rx="2" fill="#103d1f"/>
    <rect x="150" y="50" width="12" height="12" rx="2" fill="#165b2c"/>
    <rect x="164" y="50" width="12" height="12" rx="2" fill="#21793a"/>
    <rect x="178" y="50" width="12" height="12" rx="2" fill="#2bb049"/>
    <rect x="192" y="50" width="12" height="12" rx="2" fill="#39e06a"/>
    <rect x="206" y="50" width="12" height="12" rx="2" fill="#103d1f"/>
    <rect x="220" y="50" width="12" height="12" rx="2" fill="#165b2c"/>
    <rect x="234" y="50" width="12" height="12" rx="2" fill="#21793a"/>
    <rect x="248" y="50" width="12" height="12" rx="2" fill="#2bb049"/>
    <rect x="262" y="50" width="12" height="12" rx="2" fill="#39e06a"/>
    <rect x="276" y="50" width="12" height="12" rx="2" fill="#103d1f"/>
    <rect x="290" y="50" width="12" height="12" rx="2" fill="#165b2c"/>
    <rect x="304" y="50" width="12" height="12" rx="2" fill="#21793a"/>
    <rect x="318" y="50" width="12" height="12" rx="2" fill="#2bb049"/>
    <rect x="332" y="50" width="12" height="12" rx="2" fill="#39e06a"/>
    <rect x="346" y="50" width="12" height="12" rx="2" fill="#103d1f"/>
    <rect x="360" y="50" width="12" height="12" rx="2" fill="#165b2c"/>
    <rect x="374" y="50" width="12" height="12" rx="2" fill="#21793a"/>
    <rect x="388" y="50" width="12" height="12" rx="2" fill="#2bb049"/>
    <rect x="402" y="50" width="12" height="12" rx="2" fill="#39e06a"/>
    <rect x="416" y="50" width="12" height="12" rx="2" fill="#103d1f"/>
    <rect x="430" y="50" width="12" height="12" rx="2" fill="#165b2c"/>
    <rect x="444" y="50" width="12" height="12" rx="2" fill="#21793a"/>
    <rect x="458" y="50" width="12" height="12" rx="2" fill="#2bb049"/>
    <rect x="472" y="50" width="12" height="12" rx="2" fill="#39e06a"/>
    <rect x="486" y="50" width="12" height="12" rx="2" fill="#103d1f"/>
    <rect x="500" y="50" width="12" height="12" rx="2" fill="#165b2c"/>
    <rect x="514" y="50" width="12" height="12" rx="2" fill="#21793a"/>
    <rect x="528" y="50" width="12" height="12" rx="2" fill="#2bb049"/>
    <rect x="542" y="50" width="12" height="12" rx="2" fill="#39e06a"/>
    <rect x="556" y="50" width="12" height="12" rx="2" fill="#103d1f"/>
    <rect x="570" y="50" width="12" height="12" rx="2" fill="#165b2c"/>
    <rect x="584" y="50" width="12" height="12" rx="2" fill="#21793a"/>
    <rect x="598" y="50" width="12" height="12" rx="2" fill="#2bb049"/>
    <rect x="612" y="50" width="12" height="12" rx="2" fill="#39e06a"/>
    <rect x="626" y="50" width="12" height="12" rx="2" fill="#103d1f"/>
    <rect x="640" y="50" width="12" height="12" rx="2" fill="#165b2c"/>
    <rect x="654" y="50" width="12" height="12" rx="2" fill="#21793a"/>
    <rect x="668" y="50" width="12" height="12" rx="2" fill="#2bb049"/>
    <rect x="682" y="50" width="12" height="12" rx="2" fill="#39e06a"/>
    <rect x="696" y="50" width="12" height="12" rx="2" fill="#103d1f"/>
    <rect x="710" y="50" width="12" height="12" rx="2" fill="#165b2c"/>
    <rect x="724" y="50" width="12" height="12" rx="2" fill="#21793a"/>
    <rect x="738" y="50" width="12" height="12" rx="2" fill="#2bb049"/>
    <rect x="752" y="50" width="12" height="12" rx="2" fill="#39e06a"/>
    <rect x="766" y="50" width="12" height="12" rx="2" fill="#103d1f"/>

    <!-- Row Y = 70 -->
    <rect x="10" y="70" width="12" height="12" rx="2" fill="#21793a"/>
    <rect x="24" y="70" width="12" height="12" rx="2" fill="#2bb049"/>
    <rect x="38" y="70" width="12" height="12" rx="2" fill="#39e06a"/>
    <rect x="52" y="70" width="12" height="12" rx="2" fill="#103d1f"/>
    <rect x="66" y="70" width="12" height="12" rx="2" fill="#165b2c"/>
    <rect x="80" y="70" width="12" height="12" rx="2" fill="#21793a"/>
    <rect x="94" y="70" width="12" height="12" rx="2" fill="#2bb049"/>
    <rect x="108" y="70" width="12" height="12" rx="2" fill="#39e06a"/>
    <rect x="122" y="70" width="12" height="12" rx="2" fill="#103d1f"/>
    <rect x="136" y="70" width="12" height="12" rx="2" fill="#165b2c"/>
    <rect x="150" y="70" width="12" height="12" rx="2" fill="#21793a"/>
    <rect x="164" y="70" width="12" height="12" rx="2" fill="#2bb049"/>
    <rect x="178" y="70" width="12" height="12" rx="2" fill="#39e06a"/>
    <rect x="192" y="70" width="12" height="12" rx="2" fill="#103d1f"/>
    <rect x="206" y="70" width="12" height="12" rx="2" fill="#165b2c"/>
    <rect x="220" y="70" width="12" height="12" rx="2" fill="#21793a"/>
    <rect x="234" y="70" width="12" height="12" rx="2" fill="#2bb049"/>
    <rect x="248" y="70" width="12" height="12" rx="2" fill="#39e06a"/>
    <rect x="262" y="70" width="12" height="12" rx="2" fill="#103d1f"/>
    <rect x="276" y="70" width="12" height="12" rx="2" fill="#165b2c"/>
    <rect x="290" y="70" width="12" height="12" rx="2" fill="#21793a"/>
    <rect x="304" y="70" width="12" height="12" rx="2" fill="#2bb049"/>
    <rect x="318" y="70" width="12" height="12" rx="2" fill="#39e06a"/>
    <rect x="332" y="70" width="12" height="12" rx="2" fill="#103d1f"/>
    <rect x="346" y="70" width="12" height="12" rx="2" fill="#165b2c"/>
    <rect x="360" y="70" width="12" height="12" rx="2" fill="#21793a"/>
    <rect x="374" y="70" width="12" height="12" rx="2" fill="#2bb049"/>
    <rect x="388" y="70" width="12" height="12" rx="2" fill="#39e06a"/>
    <rect x="402" y="70" width="12" height="12" rx="2" fill="#103d1f"/>
    <rect x="416" y="70" width="12" height="12" rx="2" fill="#165b2c"/>
    <rect x="430" y="70" width="12" height="12" rx="2" fill="#21793a"/>
    <rect x="444" y="70" width="12" height="12" rx="2" fill="#2bb049"/>
    <rect x="458" y="70" width="12" height="12" rx="2" fill="#39e06a"/>
    <rect x="472" y="70" width="12" height="12" rx="2" fill="#103d1f"/>
    <rect x="486" y="70" width="12" height="12" rx="2" fill="#165b2c"/>
    <rect x="500" y="70" width="12" height="12" rx="2" fill="#21793a"/>
    <rect x="514" y="70" width="12" height="12" rx="2" fill="#2bb049"/>
    <rect x="528" y="70" width="12" height="12" rx="2" fill="#39e06a"/>
    <rect x="542" y="70" width="12" height="12" rx="2" fill="#103d1f"/>
    <rect x="556" y="70" width="12" height="12" rx="2" fill="#165b2c"/>
    <rect x="570" y="70" width="12" height="12" rx="2" fill="#21793a"/>
    <rect x="584" y="70" width="12" height="12" rx="2" fill="#2bb049"/>
    <rect x="598" y="70" width="12" height="12" rx="2" fill="#39e06a"/>
    <rect x="612" y="70" width="12" height="12" rx="2" fill="#103d1f"/>
    <rect x="626" y="70" width="12" height="12" rx="2" fill="#165b2c"/>
    <rect x="640" y="70" width="12" height="12" rx="2" fill="#21793a"/>
    <rect x="654" y="70" width="12" height="12" rx="2" fill="#2bb049"/>
    <rect x="668" y="70" width="12" height="12" rx="2" fill="#39e06a"/>
    <rect x="682" y="70" width="12" height="12" rx="2" fill="#103d1f"/>
    <rect x="696" y="70" width="12" height="12" rx="2" fill="#165b2c"/>
    <rect x="710" y="70" width="12" height="12" rx="2" fill="#21793a"/>
    <rect x="724" y="70" width="12" height="12" rx="2" fill="#2bb049"/>
    <rect x="738" y="70" width="12" height="12" rx="2" fill="#39e06a"/>
    <rect x="752" y="70" width="12" height="12" rx="2" fill="#103d1f"/>
    <rect x="766" y="70" width="12" height="12" rx="2" fill="#165b2c"/>
  </g>

  <!-- Footer help text and legend -->
  <g fill="#9fb0c6" font-family="Segoe UI, Roboto, Arial, sans-serif" font-size="12">
    <text x="14" y="110">Learn how we count contributions</text>
    <text x="600" y="110">Less</text>
  </g>
  <g>
    <rect x="654" y="98" width="12" height="12" rx="2" fill="#07210f" opacity="0.6"/>
    <rect x="674" y="98" width="12" height="12" rx="2" fill="#103d1f"/>
    <rect x="694" y="98" width="12" height="12" rx="2" fill="#2bb049"/>
    <rect x="714" y="98" width="12" height="12" rx="2" fill="#39e06a"/>
    <text x="734" y="110" fill="#9fb0c6" font-size="12">More</text>
  </g>
</svg>
